# xmcd
#
# Track frame offsets: 
#        150
#        33175
#        50990
#        76460
#        98200
#        117335
#        146487
#        165065
#        184162
#        208775
#        229555
#        254752
#        272635
#        299850
#        319552
#
# Disc length: 4453 seconds
#
# Revision: 10
# Processed by: cddbd v1.5.2PL0 Copyright (c) Steve Scherf et al.
# Submitted via: ExactAudioCopy v1.0b3
#
DISCID=dc11630f
DTITLE=Various Artist - EBM Club Classics Vol.2 CD2
DYEAR=1999
DGENRE=EBM, Industrial
TTITLE0=And One - Technoman (Live)
TTITLE1=DAF - Alle Gegen Alle
TTITLE2=X Marks The Pedwalk - Abattoir
TTITLE3=Dance Or Die - Fire
TTITLE4=Kode IV - Accelerate
TTITLE5=Click Click - Yakutska
TTITLE6=Placebo Effect - Move (Annimation Remix)
TTITLE7=¡;Grumh... - Ha People
TTITLE8=Laibach - Leben Heiﬂt Leben
TTITLE9=Second Voice - Living In Paradise
TTITLE10=Umo Detic - Carpe Diem
TTITLE11=Mao Tse Tung Experience, The - Zombie's March
TTITLE12=Zero Defects - Duracell
TTITLE13=Calva Y Nada - Rascheln
TTITLE14=Der Liederkranz - Eine Neue Zeit
EXTD=YEAR: 1999
EXTT0=
EXTT1=
EXTT2=
EXTT3=
EXTT4=
EXTT5=
EXTT6=
EXTT7=
EXTT8=
EXTT9=
EXTT10=
EXTT11=
EXTT12=
EXTT13=
EXTT14=
PLAYORDER=
